<svg width="105" height="30" fill="none" xmlns="http://www.w3.org/2000/svg"><g opacity=".25" fill="#000"><path d="M23.58 14.146c-.103 2.271-1.69 5.383-4.758 9.33-3.171 4.124-5.854 6.187-8.05 6.187-1.36 0-2.51-1.256-3.45-3.768l-1.883-6.907c-.697-2.51-1.446-3.768-2.247-3.768-.174 0-.786.368-1.831 1.1L.264 14.905a286.492 286.492 0 003.404-3.037c1.536-1.326 2.688-2.025 3.457-2.096 1.815-.174 2.932 1.069 3.352 3.725.454 2.868.767 4.651.942 5.349.524 2.379 1.1 3.567 1.729 3.567.489 0 1.222-.773 2.2-2.314.976-1.544 1.5-2.718 1.57-3.524.14-1.332-.383-2-1.57-2-.56 0-1.136.128-1.727.383 1.146-3.756 3.336-5.582 6.57-5.478 2.398.07 3.527 1.626 3.389 4.666z"/><path d="M33.422 2.877c-.035.87-.471 1.704-1.311 2.503-.942.903-2.06 1.355-3.351 1.355-1.991 0-2.953-.869-2.882-2.606.033-.903.567-1.773 1.596-2.607 1.03-.832 2.174-1.25 3.432-1.25.734 0 1.344.287 1.834.86.488.573.716 1.155.681 1.745zm4.556 18.629c-.977 1.848-2.322 3.523-4.033 5.023-2.34 2.023-4.678 3.036-7.018 3.036-1.085 0-1.913-.35-2.489-1.049-.576-.697-.848-1.603-.811-2.72.033-1.151.391-2.931 1.072-5.34.681-2.408 1.023-3.7 1.023-3.873 0-.908-.315-1.362-.944-1.362-.208 0-.803.367-1.781 1.099l-1.205-1.415a3068.51 3068.51 0 003.352-3.037c1.502-1.326 2.62-2.025 3.355-2.096 1.152-.103 1.998.236 2.539 1.019.54.784.741 1.8.603 3.053-.454 2.122-.943 4.818-1.467 8.088-.036 1.497.506 2.244 1.623 2.244.489 0 1.362-.516 2.619-1.55 1.049-.861 1.904-1.671 2.568-2.43l.994 1.31z"/><path d="M70.69 21.504c-.977 1.85-2.322 3.523-4.033 5.023-2.34 2.024-4.68 3.037-7.018 3.037-2.272 0-3.371-1.256-3.3-3.77.032-1.117.252-2.459.654-4.029.4-1.572.619-2.793.654-3.666.035-1.325-.368-1.989-1.21-1.989-.91 0-1.996 1.083-3.258 3.248-1.33 2.27-2.05 4.47-2.154 6.6-.075 1.503.075 2.655.44 3.457-2.436.07-4.143-.331-5.117-1.204-.873-.768-1.271-2.042-1.201-3.824.03-1.117.204-2.235.514-3.352.308-1.118.479-2.113.514-2.987.075-1.291-.402-1.938-1.416-1.938-.875 0-1.82.996-2.833 2.986-1.014 1.99-1.573 4.069-1.678 6.233-.075 1.957.06 3.318.375 4.086-2.397.07-4.1-.435-5.106-1.515-.837-.904-1.218-2.28-1.148-4.127.03-.904.194-2.167.482-3.785.288-1.62.449-2.882.482-3.788.075-.625-.09-.94-.471-.94-.21 0-.805.354-1.782 1.06l-1.257-1.415c.175-.137 1.273-1.151 3.3-3.037 1.467-1.36 2.461-2.06 2.985-2.094.909-.07 1.64.305 2.2 1.125.558.82.839 1.773.839 2.855 0 .349-.03.68-.105.995a9.65 9.65 0 011.832-2.097c1.607-1.394 3.405-2.182 5.396-2.356 1.711-.14 2.932.261 3.667 1.205.593.768.872 1.869.838 3.3.244-.209.507-.437.787-.681.801-.942 1.587-1.692 2.355-2.252 1.291-.944 2.639-1.467 4.033-1.572 1.677-.14 2.882.26 3.615 1.2.627.765.908 1.861.839 3.287-.036.975-.272 2.392-.708 4.254-.438 1.861-.654 2.929-.654 3.208-.036.732.035 1.236.209 1.514.175.279.592.416 1.256.416.49 0 1.361-.515 2.62-1.55 1.047-.86 1.903-1.67 2.568-2.429l.996 1.308z"/><path d="M78.442 15.981c.034-.938-.349-1.407-1.15-1.407-1.047 0-2.11.722-3.19 2.163-1.082 1.442-1.64 2.823-1.675 4.143-.019 0-.019.227 0 .678a11.79 11.79 0 004.447-2.866c1.01-1.112 1.532-2.017 1.569-2.711zm11.891 5.469c-1.013 1.675-3.003 3.348-5.971 5.022-3.701 2.127-7.457 3.189-11.262 3.189-2.828 0-4.856-.942-6.077-2.828-.873-1.291-1.291-2.827-1.257-4.607.034-2.828 1.293-5.516 3.772-8.066 2.723-2.793 5.936-4.191 9.638-4.191 3.423 0 5.238 1.395 5.448 4.18.14 1.777-.838 3.607-2.934 5.488-2.235 2.056-5.047 3.361-8.433 3.918.627.871 1.569 1.306 2.828 1.306 2.514 0 5.256-.639 8.224-1.919 2.13-.898 3.807-1.831 5.03-2.799l.994 1.307z"/><path d="M98.632 17.742c.035-.945-.096-1.81-.392-2.598-.297-.786-.727-1.182-1.283-1.182-1.782 0-3.249.963-4.4 2.887-.979 1.575-1.504 3.256-1.572 5.038-.035.875.122 1.646.472 2.31.382.77.924 1.155 1.624 1.155 1.57 0 2.916-.926 4.034-2.782.942-1.54 1.447-3.15 1.517-4.828zm5.919.198c-.139 3.208-1.325 5.98-3.56 8.316-2.236 2.335-5.013 3.504-8.33 3.504-2.758 0-4.854-.89-6.285-2.669-1.047-1.324-1.625-2.98-1.728-4.966-.177-3 .906-5.754 3.248-8.265 2.513-2.788 5.672-4.183 9.48-4.183 2.443 0 4.294.82 5.553 2.458 1.188 1.5 1.727 3.435 1.622 5.805z"/></g></svg>