<svg width="100" height="31" fill="none" xmlns="http://www.w3.org/2000/svg"><g opacity=".25" clip-path="url(#clip0)" fill="#000"><path d="M.05 21.501V.494h3.69v21.007H.05zm13.136-15.24c-4.731 0-8.005 3.638-8.005 7.802 0 4.647 3.561 7.848 8.042 7.848 4.252 0 7.941-3.142 7.941-7.858 0-3.966-3.057-7.792-7.978-7.792zm-.044 3.56c2.476 0 4.299 1.928 4.299 4.255a4.252 4.252 0 01-4.232 4.268c-2.626 0-4.278-2.08-4.278-4.261 0-2.39 1.866-4.262 4.211-4.262zm17.294-3.56c-4.731 0-8.005 3.638-8.005 7.802 0 4.647 3.561 7.848 8.042 7.848 4.252 0 7.941-3.142 7.941-7.858 0-2.777-1.202-4.01-1.202-4.01l1.022-.35V6.698h-5.24s-1.137-.437-2.558-.437zm-.044 3.56c2.476 0 4.299 1.928 4.299 4.255a4.252 4.252 0 01-4.232 4.268c-2.626 0-4.278-2.08-4.278-4.261 0-2.39 1.866-4.262 4.211-4.262zm4.273 12.707a4.264 4.264 0 01-4.232 4.282c-2.626 0-4.285-2.102-4.285-4.282h-3.744c0 4.647 3.562 7.848 8.043 7.848 4.252 0 7.941-3.132 7.941-7.848h-3.723zm5.227-1.027V6.698h3.69v14.803h-3.69zm7.274 0V10.014h-1.98V6.698h1.98V2.152h3.69v4.546h2.032v3.316h-2.032V21.5h-3.69zM44.173 2.494a2.444 2.444 0 11-4.887 0 2.444 2.444 0 014.887 0zm17.011 3.757c-4.754 0-7.818 3.64-7.818 7.946 0 4.449 3.075 7.724 7.895 7.724 4.496 0 6.708-2.808 6.708-2.808l-2.467-2.47s-1.862 2.01-4.194 2.01c-1.945 0-3.5-1.086-4.041-3.076h11.498v-1.016c0-4.055-2.347-8.31-7.581-8.31zm-.117 3.25c1.7 0 3.438.909 3.827 3.081h-7.728c.306-1.527 1.642-3.082 3.9-3.082zm16.928 12.422c-4.767 0-8.016-3.63-8.016-7.912 0-4.418 3.671-7.762 8-7.762 4.185 0 6.327 2.954 6.327 2.954l-2.574 2.562s-1.491-1.926-3.77-1.926c-2.526 0-4.253 1.932-4.253 4.229 0 2.425 1.837 4.286 4.224 4.286 2.316 0 3.795-1.924 3.795-1.924l2.6 2.561s-2.12 2.932-6.333 2.932zm7.675-.411V.44h3.691v7.741s1.413-1.933 4.486-1.933c3.864 0 6.103 2.872 6.103 6.546v8.717h-3.69v-8.16c0-2.468-1.537-3.492-3.239-3.492-1.94 0-3.66 1.104-3.66 3.683v7.969h-3.69z"/></g><defs><clipPath id="clip0"><path fill="#fff" d="M0 0h100v30.426H0z"/></clipPath></defs></svg>