<svg width="153" height="30" fill="none" xmlns="http://www.w3.org/2000/svg"><g opacity=".25" clip-path="url(#clip0)" fill="#000"><path d="M17.674 5.637l-8.837 5.638 8.837 5.637-8.837 5.637L0 16.883l8.837-5.638L0 5.637 8.837 0l8.837 5.637zM8.79 24.363l8.837-5.638 8.837 5.638L17.628 30l-8.837-5.637zm8.883-7.481l8.837-5.638-8.837-5.607L26.465 0l8.837 5.637-8.837 5.638 8.837 5.637-8.837 5.637-8.791-5.667zM42.235 5.637h7.145c4.556 0 8.32 2.636 8.32 8.655v1.264c0 6.064-3.52 8.791-8.183 8.791h-7.282V5.637zm3.992 3.398v11.9h3.062c2.59 0 4.327-1.692 4.327-5.455v-.99c0-3.764-1.828-5.455-4.464-5.455h-2.925zm13.59.183h3.2l.518 3.52c.61-2.393 2.163-3.673 4.982-3.673h.99v4.038h-1.645c-3.245 0-4.038 1.127-4.038 4.327v6.963h-3.946V9.218h-.06zM70.3 17.11v-.427c0-5.073 3.245-7.846 7.663-7.846 4.51 0 7.664 2.773 7.664 7.846v.427c0 4.982-3.062 7.664-7.664 7.664-4.89-.046-7.663-2.666-7.663-7.664zm11.29-.046v-.38c0-2.82-1.417-4.51-3.672-4.51-2.21 0-3.672 1.554-3.672 4.51v.38c0 2.728 1.417 4.282 3.672 4.282 2.255-.046 3.672-1.554 3.672-4.282zm6.11-7.846h3.29l.381 2.864c.793-1.92 2.484-3.245 4.983-3.245 3.854 0 6.399 2.773 6.399 7.907v.427c0 4.982-2.819 7.618-6.4 7.618-2.392 0-4.037-1.082-4.845-2.819v7.664h-3.854l.045-20.416zm11.046 7.846v-.335c0-3.016-1.555-4.51-3.627-4.51-2.209 0-3.672 1.692-3.672 4.51v.29c0 2.681 1.417 4.373 3.627 4.373 2.27-.046 3.672-1.494 3.672-4.328zm9.842 4.526l-.335 2.773h-3.383V4.144h3.855V11.9c.853-1.98 2.545-3.062 4.937-3.062 3.626.046 6.308 2.544 6.308 7.572v.473c0 5.027-2.545 7.907-6.4 7.907-2.544-.06-4.19-1.234-4.982-3.2zm7.329-4.708V16.5c0-2.773-1.509-4.327-3.627-4.327-2.163 0-3.671 1.737-3.671 4.372v.336c0 2.818 1.462 4.464 3.626 4.464 2.316 0 3.672-1.448 3.672-4.464zm5.744.228v-.427c0-5.073 3.245-7.846 7.664-7.846 4.509 0 7.663 2.773 7.663 7.846v.427c0 4.982-3.108 7.664-7.663 7.664-4.891-.046-7.664-2.666-7.664-7.664zm11.32-.046v-.38c0-2.82-1.417-4.51-3.672-4.51-2.209 0-3.672 1.554-3.672 4.51v.38c0 2.728 1.417 4.282 3.672 4.282 2.27-.046 3.672-1.554 3.672-4.282zm9.172-.563l-5.317-7.283h4.556l3.062 4.555 3.108-4.555h4.51l-5.394 7.237 5.684 7.908h-4.465l-3.473-5.028-3.383 5.028h-4.662l5.774-7.862z"/></g><defs><clipPath id="clip0"><path fill="#fff" d="M0 0h152.362v30H0z"/></clipPath></defs></svg>