<svg width="106" height="30" fill="none" xmlns="http://www.w3.org/2000/svg"><g opacity=".25" clip-path="url(#clip0)"><path d="M22.808 5.682a.286.286 0 00-.259-.24c-.107-.01-2.208-.042-2.208-.042s-1.757-1.706-1.93-1.88c-.174-.173-.513-.12-.645-.081l-.882.273a6.18 6.18 0 00-.422-1.038C15.836 1.481 14.92.85 13.813.848h-.004c-.077 0-.153.007-.23.014a3.41 3.41 0 00-.1-.116c-.482-.515-1.1-.767-1.841-.745-1.43.041-2.853 1.074-4.007 2.907-.812 1.29-1.43 2.912-1.606 4.167l-2.814.871c-.829.26-.855.286-.963 1.067C2.168 9.603 0 26.366 0 26.366l18.167 3.142 7.874-1.957S22.828 5.83 22.808 5.682zm-6.833-1.688l-1.41.436c-.01-.723-.097-1.73-.434-2.6 1.085.205 1.618 1.432 1.844 2.164zm-2.36.731l-3.034.939c.293-1.122.85-2.24 1.532-2.973.254-.272.609-.576 1.03-.75.395.826.481 1.994.471 2.784zM11.666.953c.335-.008.618.066.86.225-.387.2-.76.488-1.11.864-.909.974-1.605 2.487-1.882 3.945l-2.491.772C7.536 4.462 9.46 1.016 11.667.953z" fill="#000"/><path d="M22.55 5.442c-.107-.009-2.208-.04-2.208-.04s-1.757-1.707-1.93-1.88a.43.43 0 00-.244-.113v26.098l7.873-1.956S22.83 5.83 22.81 5.683a.287.287 0 00-.26-.24z" fill="#000"/><path d="M13.803 9.49l-.914 3.422s-1.02-.465-2.23-.388c-1.773.112-1.791 1.23-1.773 1.51.096 1.53 4.122 1.865 4.348 5.449.177 2.82-1.496 4.748-3.907 4.9-2.894.183-4.487-1.524-4.487-1.524l.613-2.608s1.604 1.21 2.887 1.129c.839-.053 1.138-.735 1.108-1.218-.126-1.995-3.404-1.878-3.611-5.157-.174-2.76 1.638-5.556 5.637-5.808 1.541-.1 2.33.293 2.33.293z" fill="#fff"/><path d="M36.41 16.654c-.906-.491-1.371-.905-1.371-1.474 0-.725.646-1.19 1.655-1.19 1.175 0 2.224.491 2.224.491l.828-2.535s-.761-.595-3-.595c-3.117 0-5.277 1.785-5.277 4.294 0 1.422 1.009 2.509 2.354 3.284 1.087.62 1.475 1.06 1.475 1.707 0 .672-.544 1.216-1.552 1.216-1.503 0-2.922-.776-2.922-.776l-.88 2.534s1.312.88 3.518.88c3.207 0 5.51-1.578 5.51-4.423-.002-1.525-1.165-2.611-2.563-3.413zm12.777-5.328c-1.578 0-2.82.75-3.776 1.888l-.052-.026 1.37-7.164H43.16l-3.465 18.234h3.569l1.19-6.233c.465-2.354 1.68-3.802 2.819-3.802.801 0 1.112.543 1.112 1.32 0 .49-.052 1.086-.155 1.577l-1.345 7.139h3.57l1.396-7.372c.156-.776.26-1.707.26-2.328-.002-2.017-1.062-3.233-2.924-3.233zm10.991 0c-4.293 0-7.137 3.88-7.137 8.199 0 2.767 1.706 4.99 4.914 4.99 4.215 0 7.06-3.775 7.06-8.198 0-2.56-1.5-4.991-4.837-4.991zm-1.758 10.45c-1.216 0-1.733-1.035-1.733-2.328 0-2.044 1.06-5.38 3-5.38 1.268 0 1.68 1.087 1.68 2.147 0 2.198-1.059 5.56-2.947 5.56zm15.725-10.45c-2.41 0-3.776 2.121-3.776 2.121h-.052l.208-1.914h-3.156a76.34 76.34 0 01-.724 4.733l-2.483 13.06h3.57l.982-5.275h.078s.732.465 2.095.465c4.19 0 6.931-4.293 6.931-8.639 0-2.404-1.06-4.551-3.673-4.551zm-3.414 10.5c-.926 0-1.475-.517-1.475-.517l.595-3.336c.414-2.224 1.578-3.699 2.82-3.699 1.086 0 1.422 1.009 1.422 1.966 0 2.302-1.37 5.587-3.362 5.587zM82.913 6.205c-1.137 0-2.043.905-2.043 2.069 0 1.06.672 1.785 1.681 1.785h.052c1.112 0 2.069-.75 2.095-2.07 0-1.034-.698-1.784-1.785-1.784zm-4.991 18.053h3.568l2.432-12.647h-3.595l-2.405 12.647zM93 11.585h-2.483l.13-.595c.206-1.216.93-2.302 2.12-2.302.635 0 1.138.181 1.138.181l.698-2.793s-.62-.31-1.94-.31c-1.267 0-2.534.362-3.491 1.19-1.216 1.034-1.785 2.533-2.07 4.034l-.102.595h-1.656l-.517 2.69h1.656l-1.888 9.984h3.57l1.887-9.984h2.457l.492-2.69zm8.587.026s-2.231 5.621-3.233 8.69h-.052c-.068-.988-.88-8.69-.88-8.69h-3.75l2.148 11.612c.052.258.026.414-.078.595-.415.802-1.113 1.578-1.94 2.147-.673.491-1.423.802-2.017 1.009L92.767 30c.725-.155 2.224-.75 3.492-1.94 1.63-1.526 3.129-3.88 4.681-7.087l4.371-9.363h-3.724v.001z" fill="#000"/></g><defs><clipPath id="clip0"><path fill="#fff" d="M0 0h105.738v30H0z"/></clipPath></defs></svg>