<svg width="100" height="30" fill="none" xmlns="http://www.w3.org/2000/svg"><g opacity=".25" clip-path="url(#clip0)"><path d="M15 .05C6.74.05.044 6.744.044 15.002c0 8.26 6.696 14.954 14.954 14.954 8.26 0 14.955-6.695 14.955-14.954C29.954 6.745 23.259.05 14.999.05zm6.857 21.567a.932.932 0 01-1.282.31c-3.511-2.145-7.931-2.631-13.136-1.442a.932.932 0 01-.415-1.818c5.696-1.301 10.582-.74 14.524 1.668.44.27.579.843.31 1.282zm1.83-4.072a1.166 1.166 0 01-1.603.385c-4.02-2.47-10.147-3.187-14.901-1.743a1.168 1.168 0 01-1.455-.777 1.168 1.168 0 01.777-1.454c5.43-1.648 12.183-.85 16.799 1.987.548.337.721 1.055.384 1.603zm.158-4.24c-4.82-2.862-12.772-3.125-17.373-1.729A1.399 1.399 0 115.66 8.9c5.282-1.603 14.063-1.293 19.612 2a1.397 1.397 0 11-1.427 2.406zm16.885.55c-2.582-.617-3.04-1.049-3.04-1.957 0-.858.806-1.435 2.008-1.435 1.164 0 2.318.438 3.529 1.34a.166.166 0 00.127.032.167.167 0 00.112-.069l1.26-1.777a.17.17 0 00-.031-.23c-1.441-1.156-3.063-1.718-4.96-1.718-2.787 0-4.735 1.673-4.735 4.067 0 2.567 1.68 3.476 4.584 4.177 2.47.57 2.887 1.046 2.887 1.898 0 .945-.842 1.532-2.2 1.532-1.507 0-2.737-.508-4.112-1.698a.167.167 0 00-.24.018l-1.414 1.682a.17.17 0 00.016.236c1.6 1.429 3.568 2.182 5.693 2.182 3.004 0 4.945-1.64 4.945-4.182.005-2.144-1.279-3.332-4.423-4.097l-.006-.002zm11.225-2.547c-1.301 0-2.37.512-3.251 1.563v-1.183a.169.169 0 00-.168-.169h-2.313a.169.169 0 00-.168.17v13.143c0 .092.075.17.168.17h2.313a.17.17 0 00.168-.17v-4.149c.882.988 1.95 1.472 3.251 1.472 2.42 0 4.87-1.863 4.87-5.423.004-3.561-2.446-5.425-4.868-5.425h-.002zm2.18 5.424c0 1.812-1.115 3.078-2.715 3.078-1.58 0-2.774-1.323-2.774-3.078 0-1.756 1.193-3.079 2.774-3.079 1.573 0 2.716 1.295 2.716 3.079zm8.967-5.424c-3.116 0-5.557 2.399-5.557 5.462 0 3.031 2.425 5.404 5.52 5.404 3.126 0 5.574-2.39 5.574-5.442 0-3.041-2.432-5.424-5.537-5.424zm0 8.52c-1.657 0-2.907-1.332-2.907-3.097 0-1.773 1.207-3.06 2.87-3.06 1.667 0 2.924 1.332 2.924 3.099 0 1.772-1.214 3.058-2.887 3.058zm12.19-8.309h-2.544V8.918a.169.169 0 00-.168-.17h-2.312a.17.17 0 00-.17.17v2.601h-1.11a.169.169 0 00-.168.17v1.986c0 .094.075.17.168.17h1.11v5.142c0 2.077 1.034 3.13 3.075 3.13.829 0 1.516-.171 2.165-.539a.165.165 0 00.085-.146v-1.893a.168.168 0 00-.08-.143.164.164 0 00-.164-.007 2.92 2.92 0 01-1.358.326c-.74 0-1.073-.337-1.073-1.09v-4.78h2.545a.169.169 0 00.168-.169V11.69a.164.164 0 00-.166-.17h-.002zm8.865.01v-.32c0-.939.36-1.358 1.168-1.358.482 0 .87.096 1.304.24a.168.168 0 00.221-.161V7.982a.167.167 0 00-.12-.162 6.334 6.334 0 00-1.921-.276c-2.134 0-3.264 1.202-3.264 3.476v.49h-1.111a.17.17 0 00-.17.168v1.997c0 .094.077.17.17.17h1.11v7.93c0 .094.077.17.17.17h2.311a.17.17 0 00.17-.17v-7.93h2.159l3.307 7.93c-.375.832-.745.998-1.249.998-.407 0-.837-.122-1.275-.363a.184.184 0 00-.133-.012.168.168 0 00-.1.09l-.784 1.72a.169.169 0 00.073.22c.818.443 1.555.632 2.468.632 1.707 0 2.651-.796 3.482-2.936l4.01-10.363a.165.165 0 00-.017-.158.165.165 0 00-.138-.073h-2.407a.17.17 0 00-.16.113l-2.467 7.042-2.7-7.046a.169.169 0 00-.157-.11h-3.95zm-5.14-.01h-2.312a.17.17 0 00-.17.17v10.085c0 .095.078.17.17.17h2.313a.17.17 0 00.17-.17V11.69a.17.17 0 00-.17-.17zm-1.142-4.593a1.658 1.658 0 10-.002 3.316 1.658 1.658 0 00.002-3.316zm20.254 7.836a1.62 1.62 0 01-1.627-1.627c0-.892.721-1.636 1.636-1.636a1.62 1.62 0 011.626 1.627c0 .892-.721 1.636-1.635 1.636zm.008-3.1c-.833 0-1.464.662-1.464 1.473 0 .81.627 1.464 1.456 1.464.834 0 1.464-.662 1.464-1.473s-.627-1.465-1.456-1.465zm.361 1.631l.46.644h-.388l-.415-.59H97.8v.59h-.325V12.23h.76c.399 0 .66.204.66.545.001.28-.161.451-.395.519h-.002zm-.275-.77H97.8v.54h.423c.21 0 .338-.104.338-.27 0-.176-.127-.27-.338-.27z" fill="#000"/></g><defs><clipPath id="clip0"><path fill="#fff" d="M0 0h99.821v30H0z"/></clipPath></defs></svg>