<svg width="154" height="54" fill="none" xmlns="http://www.w3.org/2000/svg"><path d="M81.396 30.218c0-.858-.303-1.514-.908-1.968-.606-.464-1.695-.949-3.27-1.453-1.574-.515-2.82-1.02-3.739-1.514-2.502-1.352-3.753-3.174-3.753-5.464 0-1.19.333-2.25.999-3.179.676-.938 1.64-1.67 2.89-2.195 1.262-.524 2.675-.787 4.239-.787 1.574 0 2.977.288 4.208.863 1.231.565 2.185 1.367 2.86 2.407.687 1.04 1.03 2.22 1.03 3.542h-4.54c0-1.01-.319-1.791-.955-2.346-.635-.566-1.528-.848-2.679-.848-1.11 0-1.973.237-2.588.711-.616.465-.923 1.08-.923 1.847 0 .716.358 1.317 1.074 1.801.727.485 1.791.939 3.194 1.363 2.584.777 4.466 1.74 5.646 2.89 1.18 1.151 1.771 2.584 1.771 4.3 0 1.907-.721 3.405-2.164 4.495-1.443 1.08-3.386 1.62-5.828 1.62-1.695 0-3.24-.308-4.632-.924-1.392-.625-2.457-1.478-3.194-2.558-.726-1.08-1.09-2.33-1.09-3.754h4.557c0 2.432 1.453 3.648 4.359 3.648 1.08 0 1.922-.217 2.528-.65.605-.445.908-1.06.908-1.847zm14.894 6.085c-2.401 0-4.359-.737-5.873-2.21-1.503-1.474-2.255-3.436-2.255-5.888v-.424c0-1.645.318-3.113.954-4.405.635-1.302 1.534-2.3 2.694-2.997 1.17-.707 2.503-1.06 3.996-1.06 2.24 0 4.001.707 5.283 2.12 1.292 1.412 1.937 3.415 1.937 6.009v1.786H92.597c.141 1.07.565 1.927 1.272 2.573.716.646 1.62.969 2.71.969 1.684 0 3.001-.61 3.95-1.832l2.149 2.407c-.656.928-1.544 1.655-2.664 2.18-1.12.514-2.361.772-3.724.772zm-.499-13.442c-.868 0-1.574.293-2.12.878-.534.585-.877 1.423-1.028 2.513h6.085v-.348c-.02-.969-.283-1.716-.788-2.24-.504-.535-1.22-.803-2.149-.803zm13.759-3.239l.137 1.892c1.17-1.463 2.739-2.195 4.707-2.195 1.736 0 3.027.51 3.875 1.53.848 1.018 1.282 2.542 1.302 4.57V36h-4.375V25.525c0-.928-.202-1.6-.605-2.013-.404-.424-1.075-.636-2.013-.636-1.231 0-2.155.525-2.77 1.575V36h-4.375V19.622h4.117zm22.221 11.852c0-.535-.267-.954-.802-1.256-.525-.313-1.373-.59-2.543-.833-3.895-.817-5.843-2.472-5.843-4.965 0-1.453.6-2.664 1.801-3.632 1.211-.98 2.79-1.469 4.738-1.469 2.079 0 3.739.49 4.98 1.469 1.251.978 1.877 2.25 1.877 3.814h-4.375c0-.626-.201-1.14-.605-1.544-.404-.414-1.034-.62-1.892-.62-.737 0-1.307.166-1.711.499a1.578 1.578 0 00-.605 1.271c0 .485.227.878.681 1.181.464.293 1.241.55 2.331.772 1.09.212 2.008.454 2.755.727 2.311.847 3.466 2.316 3.466 4.404 0 1.494-.64 2.705-1.922 3.633-1.282.919-2.936 1.378-4.965 1.378-1.372 0-2.593-.242-3.663-.727-1.059-.494-1.892-1.165-2.497-2.013-.606-.858-.909-1.781-.909-2.77h4.148c.04.777.328 1.372.863 1.786.534.414 1.251.62 2.149.62.838 0 1.468-.156 1.892-.468.434-.323.651-.742.651-1.257zm14.622 4.829c-2.402 0-4.359-.737-5.873-2.21-1.504-1.474-2.255-3.436-2.255-5.888v-.424c0-1.645.318-3.113.953-4.405.636-1.302 1.534-2.3 2.695-2.997 1.17-.707 2.502-1.06 3.996-1.06 2.24 0 4.001.707 5.282 2.12 1.292 1.412 1.938 3.415 1.938 6.009v1.786H142.7c.141 1.07.565 1.927 1.271 2.573.717.646 1.62.969 2.71.969 1.685 0 3.002-.61 3.95-1.832l2.15 2.407c-.656.928-1.544 1.655-2.664 2.18-1.12.514-2.362.772-3.724.772zm-.499-13.442c-.868 0-1.575.293-2.12.878-.534.585-.878 1.423-1.029 2.513h6.085v-.348c-.02-.969-.282-1.716-.787-2.24-.505-.535-1.221-.803-2.149-.803z" fill="#0284C7"/><path fill-rule="evenodd" clip-rule="evenodd" d="M7.829 7.617a8 8 0 00-6.182 9.476l5.97 28.379a8 8 0 009.476 6.181l28.379-5.97a8 8 0 006.181-9.476L45.683 7.83a8 8 0 00-9.476-6.182L7.83 7.617zM29.852 27.97c.575.268.937.754 1.085 1.458.136.646-.006 1.204-.426 1.672-.422.461-1.076.785-1.963.971-2.385.502-3.787-.245-4.207-2.241l-3.74.787c.246 1.167.76 2.132 1.543 2.892.79.76 1.812 1.275 3.063 1.548 1.25.265 2.57.251 3.96-.041 2.005-.422 3.506-1.2 4.504-2.336.996-1.144 1.33-2.498 1-4.064-.296-1.407-1.028-2.482-2.195-3.222-1.168-.74-2.879-1.206-5.133-1.398-1.225-.105-2.177-.294-2.857-.567-.672-.273-1.07-.704-1.193-1.292-.133-.63.014-1.188.439-1.675.423-.496 1.09-.84 2.001-1.031.945-.199 1.726-.121 2.346.233.617.346 1.013.933 1.188 1.76l3.726-.783c-.228-1.085-.713-1.995-1.456-2.73-.734-.736-1.655-1.23-2.763-1.481-1.11-.26-2.311-.253-3.603.019-1.284.27-2.398.729-3.343 1.377-.936.647-1.6 1.414-1.994 2.3-.386.878-.476 1.805-.27 2.782.395 1.88 1.736 3.16 4.024 3.837.839.247 1.949.446 3.33.597 1.379.142 2.357.351 2.934.628z" fill="#0284C7"/></svg>