<svg width="54" height="54" fill="none" xmlns="http://www.w3.org/2000/svg"><path fill-rule="evenodd" clip-rule="evenodd" d="M7.829 7.618a8 8 0 00-6.182 9.475l5.97 28.379a8 8 0 009.476 6.182l28.379-5.97a8 8 0 006.181-9.476l-5.97-28.38a8 8 0 00-9.476-6.18L7.83 7.617zm22.023 20.351c.575.268.937.754 1.085 1.458.136.646-.006 1.204-.426 1.673-.422.46-1.076.784-1.963.97-2.385.502-3.787-.245-4.207-2.24l-3.74.786c.246 1.168.76 2.132 1.543 2.893.79.759 1.812 1.275 3.063 1.548 1.25.264 2.57.25 3.96-.042 2.005-.422 3.506-1.2 4.504-2.336.996-1.143 1.33-2.498 1-4.063-.296-1.408-1.028-2.482-2.195-3.223-1.168-.74-2.879-1.206-5.133-1.398-1.225-.105-2.177-.294-2.857-.566-.672-.274-1.07-.705-1.193-1.293-.133-.63.014-1.188.439-1.675.423-.496 1.09-.84 2.001-1.031.945-.199 1.726-.12 2.346.233.617.346 1.013.933 1.188 1.761l3.726-.784c-.228-1.085-.713-1.995-1.456-2.73-.734-.736-1.655-1.23-2.763-1.48-1.11-.26-2.311-.254-3.603.018-1.284.27-2.398.73-3.343 1.378-.936.646-1.6 1.413-1.994 2.3-.386.877-.476 1.804-.27 2.782.395 1.88 1.736 3.159 4.024 3.836.839.247 1.949.446 3.33.597 1.379.142 2.357.352 2.934.628z" fill="#A4A4A4"/></svg>